<?xml version="1.0" encoding="utf-8"?>
<!-- Generator: Adobe Illustrator 16.0.0, SVG Export Plug-In . SVG Version: 6.00 Build 0)  -->
<!DOCTYPE svg PUBLIC "-//W3C//DTD SVG 1.1//EN" "http://www.w3.org/Graphics/SVG/1.1/DTD/svg11.dtd">
<svg version="1.1" xmlns="http://www.w3.org/2000/svg" xmlns:xlink="http://www.w3.org/1999/xlink" x="0px" y="0px" width="500px"
	 height="500px" viewBox="0 0 500 500" enable-background="new 0 0 500 500" xml:space="preserve">
<g id="Layer_1">
</g>
<g id="Layer_8">
</g>
<g id="Layer_2" display="none">
	<rect x="-1040" display="inline" fill="#BCBCBC" stroke="#FFFFFF" stroke-miterlimit="10" width="500" height="500"/>
</g>
<g id="Layer_5">
</g>
<g id="Layer_7">
</g>
<g id="Layer_4">
</g>
<g id="Layer_3">
	<g>
		<radialGradient id="SVGID_1_" cx="250" cy="250" r="117.9434" gradientUnits="userSpaceOnUse">
			<stop  offset="0" style="stop-color:#7963AB"/>
			<stop  offset="0.1582" style="stop-color:#70579F"/>
			<stop  offset="1" style="stop-color:#28003E"/>
		</radialGradient>
		<path fill="url(#SVGID_1_)" d="M367.943,347.191c0,11.461-9.291,20.752-20.752,20.752H152.811
			c-11.461,0-20.754-9.291-20.754-20.752V152.81c0-11.461,9.293-20.753,20.754-20.753h194.381c11.461,0,20.752,9.292,20.752,20.753
			V347.191z"/>
		<path fill="none" stroke="#FFFFFF" stroke-width="0.5" stroke-miterlimit="10" d="M334.775,159.886"/>
		<path fill="none" stroke="#FFFFFF" stroke-width="0.5" stroke-miterlimit="10" d="M334.633,161.677"/>
		<path fill="none" stroke="#FFFFFF" stroke-width="0.5" stroke-miterlimit="10" d="M337.393,161.677"/>
		<path fill="none" stroke="#FFFFFF" stroke-width="0.5" stroke-miterlimit="10" d="M337.229,159.621"/>
		<path fill="none" stroke="#FFFFFF" stroke-width="0.5" stroke-miterlimit="10" d="M337.24,163.585"/>
		<path fill="none" stroke="#FFFFFF" stroke-width="0.5" stroke-miterlimit="10" d="M337.393,161.667"/>
		<path fill="none" stroke="#FFFFFF" stroke-width="0.5" stroke-miterlimit="10" d="M334.633,161.667"/>
		<path fill="none" stroke="#FFFFFF" stroke-width="0.5" stroke-miterlimit="10" d="M334.781,163.539"/>
		<path fill="none" stroke="#FFFFFF" stroke-width="0.5" stroke-miterlimit="10" d="M334.123,162.905"/>
		<path fill="none" stroke="#FFFFFF" stroke-width="0.5" stroke-miterlimit="10" d="M335.908,163.048"/>
		<path fill="none" stroke="#FFFFFF" stroke-width="0.5" stroke-miterlimit="10" d="M335.908,160.286"/>
		<path fill="none" stroke="#FFFFFF" stroke-width="0.5" stroke-miterlimit="10" d="M334.117,160.429"/>
		<path fill="none" stroke="#FFFFFF" stroke-width="0.5" stroke-miterlimit="10" d="M337.787,160.438"/>
		<path fill="none" stroke="#FFFFFF" stroke-width="0.5" stroke-miterlimit="10" d="M336.014,160.296"/>
		<path fill="none" stroke="#FFFFFF" stroke-width="0.5" stroke-miterlimit="10" d="M336.014,163.058"/>
		<path fill="none" stroke="#FFFFFF" stroke-width="0.5" stroke-miterlimit="10" d="M337.793,162.916"/>
		<path fill="none" stroke="#FFFFFF" stroke-width="0.5" stroke-miterlimit="10" d="M336.695,159.697"/>
		<path fill="none" stroke="#FFFFFF" stroke-width="0.5" stroke-miterlimit="10" d="M335.199,160.974"/>
		<path fill="none" stroke="#FFFFFF" stroke-width="0.5" stroke-miterlimit="10" d="M336.668,162.441"/>
		<path fill="none" stroke="#FFFFFF" stroke-width="0.5" stroke-miterlimit="10" d="M337.941,160.947"/>
		<path fill="none" stroke="#FFFFFF" stroke-width="0.5" stroke-miterlimit="10" d="M333.889,160.902"/>
		<path fill="none" stroke="#FFFFFF" stroke-width="0.5" stroke-miterlimit="10" d="M335.148,162.381"/>
		<path fill="none" stroke="#FFFFFF" stroke-width="0.5" stroke-miterlimit="10" d="M336.617,160.912"/>
		<path fill="none" stroke="#FFFFFF" stroke-width="0.5" stroke-miterlimit="10" d="M335.336,159.821"/>
		<path fill="none" stroke="#FFFFFF" stroke-width="0.5" stroke-miterlimit="10" d="M337.863,162.377"/>
		<path fill="none" stroke="#FFFFFF" stroke-width="0.5" stroke-miterlimit="10" d="M336.666,160.974"/>
		<path fill="none" stroke="#FFFFFF" stroke-width="0.5" stroke-miterlimit="10" d="M335.199,162.441"/>
		<path fill="none" stroke="#FFFFFF" stroke-width="0.5" stroke-miterlimit="10" d="M336.539,163.585"/>
		<g>
			<path fill="none" stroke="#FFFFFF" stroke-width="2" stroke-miterlimit="10" d="M243.07,291.571
				c-6.945-5.724-11.066-9.666-18.02-16.621c-38.355-38.355-59.449-79.45-47.113-91.786c5.135-5.135,15.252-4.477,28.08,0.807"/>
			<path fill="none" stroke="#FFFFFF" stroke-width="2" stroke-miterlimit="10" d="M240.352,204.063
				c9.762,7.04,17.598,14.44,29.371,26.215c38.355,38.355,59.449,79.45,47.113,91.786c-9.047,9.047-31.139,1.894-58.697-18.642"/>
			<path fill="none" stroke="#FFFFFF" stroke-width="2" stroke-miterlimit="10" d="M228.051,195.894
				c3.111,1.865,4.531,2.72,7.385,4.701"/>
			<path fill="none" stroke="#FFFFFF" stroke-width="2" stroke-miterlimit="10" d="M248.715,288.035
				c-9.494-7.183-17.523-13.752-27.877-24.105c-33.309-33.31-51.359-69.264-40.316-80.308c4.518-4.517,8.936-3.944,17.898-2.326"/>
			<path fill="none" stroke="#FFFFFF" stroke-width="2" stroke-miterlimit="10" d="M248.951,288.375"/>
			<path fill="none" stroke="#FFFFFF" stroke-width="2" stroke-miterlimit="10" d="M284.854,306.181
				c-6.65-1.271-11.318-2.732-19.877-7.734"/>
			<path fill="none" stroke="#FFFFFF" stroke-width="2" stroke-miterlimit="10" d="M229.193,218.382
				c12.184,3.797,21.842,11.078,38.141,27.376c23.795,23.795,36.213,49.961,27.732,58.44c-2.344,2.345-5.855,2.904-10.213,1.982"/>
			
				<line fill="none" stroke="#FFFFFF" stroke-width="2" stroke-miterlimit="10" x1="232.994" y1="211.419" x2="233.693" y2="222.881"/>
			<path fill="none" stroke="#FFFFFF" stroke-width="2" stroke-miterlimit="10" d="M232.818,210.771"/>
			<path fill="none" stroke="#FFFFFF" stroke-width="2" stroke-miterlimit="10" d="M232.59,204.77"/>
			
				<line fill="none" stroke="#FFFFFF" stroke-width="2" stroke-miterlimit="10" x1="232.102" y1="196.72" x2="232.475" y2="202.886"/>
			
				<line fill="none" stroke="#FFFFFF" stroke-width="2" stroke-miterlimit="10" x1="207.377" y1="184.567" x2="212.168" y2="186.703"/>
			
				<line fill="none" stroke="#FFFFFF" stroke-width="2" stroke-miterlimit="10" x1="215.02" y1="188.229" x2="216.766" y2="189.144"/>
		</g>
		<g>
			<path fill="none" stroke="#FFFFFF" stroke-width="2" stroke-miterlimit="10" d="M198.303,238.041
				c5.182-7.09,10.496-13.205,17.254-20.017c36.76-37.047,81.898-52.842,100.82-35.283c7.877,7.31,9.969,19.247,7.076,33.363"/>
			<path fill="none" stroke="#FFFFFF" stroke-width="2" stroke-miterlimit="10" d="M290.371,275.125
				c-2.518,2.727-3.307,3.478-6.293,6.485c-36.76,37.045-81.898,52.841-100.82,35.281c-15.242-14.143-9.484-44.685,12.799-75.752"/>
			<path fill="none" stroke="#FFFFFF" stroke-width="2" stroke-miterlimit="10" d="M314.936,239.698
				c-4.43,10.192-8.141,16.498-15.578,25.287"/>
			<path fill="none" stroke="#FFFFFF" stroke-width="2" stroke-miterlimit="10" d="M204.504,245.955
				c5.748-10.343,13.352-20.144,23.574-30.442c31.922-32.171,71.533-45.507,88.473-29.788c6.928,6.431,7.49,11.579,8.051,21.917"/>
			<path fill="none" stroke="#FFFFFF" stroke-width="2" stroke-miterlimit="10" d="M193.846,282.318
				c-0.428-9.954,2.217-20.545,8.645-32.649"/>
			<path fill="none" stroke="#FFFFFF" stroke-width="2" stroke-miterlimit="10" d="M278.742,258.377
				c-3.846,5.267-7.619,9.763-14.641,16.84c-22.807,22.98-51.838,31.827-64.844,19.755c-3.6-3.334-5.307-7.657-5.412-12.653"/>
			<path fill="none" stroke="#FFFFFF" stroke-width="2" stroke-miterlimit="10" d="M279.898,256.665"/>
			<path fill="none" stroke="#FFFFFF" stroke-width="2" stroke-miterlimit="10" d="M284.113,248.821"/>
			<path fill="none" stroke="#FFFFFF" stroke-width="2" stroke-miterlimit="10" d="M287.24,235.916
				c-0.412,4.61-0.939,6.223-2.666,10.338"/>
			
				<line fill="none" stroke="#FFFFFF" stroke-width="2" stroke-miterlimit="10" x1="315.07" y1="244.346" x2="282.928" y2="240.262"/>
			
				<line fill="none" stroke="#FFFFFF" stroke-width="2" stroke-miterlimit="10" x1="323.1" y1="217.591" x2="321.818" y2="222.828"/>
			
				<line fill="none" stroke="#FFFFFF" stroke-width="2" stroke-miterlimit="10" x1="320.738" y1="225.884" x2="320.098" y2="227.76"/>
		</g>
	</g>
</g>
<g id="Layer_6">
</g>
</svg>
